# xmcd
# Track frame offsets:
# 150
# 11403
# 25141
# 41085
# 56293
# 70141
# 83004
# 94310
# 111196
# 124567
# 145374
# 163660
#
# Disc length: 2384 seconds
# Revision: 0
# Processed by: cddbd v1.5.1PL2 Copyright (c) Steve Scherf et al.
# Submitted via: VisiTrax 2.9.10.228 - For more info visit www.synapsa.com
#
DISCID=97094e0c
DTITLE=Jerry Hensley - Cool Breeze Blowin`
DYEAR=2005
DGENRE=
TTITLE0=Jerry Hensley - Cool Breeze Blowin`
TTITLE1=Jerry Hensley - Call off the Dogs
TTITLE2=with Jimmy Fortune - Born to Run
TTITLE3=with Anita Carter - It`s All over now,Baby Blue
TTITLE4=Jerry Hensley - Wolf Creek
TTITLE5=with Johnny Cash - Flesh and Blood
TTITLE6=Jerry Hensley - Ain`t It Funny (what money can do)
TTITLE7=with Anita Carter - Gold Watch and Chain
TTITLE8=Jerry Hensley - I´m All Right Now
TTITLE9=Jerry Hensley - Hobo Soul
TTITLE10=Jerry Hensley - No Expectations
TTITLE11=Jerry Hensley - Goodbye old Friend
EXTD=
EXTT0=
EXTT1=
EXTT2=
EXTT3=
EXTT4=
EXTT5=
EXTT6=
EXTT7=
EXTT8=
EXTT9=
EXTT10=
EXTT11=
PLAYORDER=
